HIERARCHY
ROOT Hips
{
    OFFSET 0.000000 0.000000 0.000000
    CHANNELS 6 Xposition Yposition Zposition Zrotation Xrotation Yrotation
    JOINT Spine
    {
        OFFSET -0.000000 14.517291 0.000000
        CHANNELS 3 Zrotation Xrotation Yrotation
        JOINT Spine1
        {
            OFFSET -0.000000 37.558300 0.000000
            CHANNELS 3 Zrotation Xrotation Yrotation
            JOINT Neck
            {
                OFFSET -0.000000 37.404057 3.400369
                CHANNELS 3 Zrotation Xrotation Yrotation
                JOINT Head
                {
                    OFFSET -0.000000 24.785618 -3.540803
                    CHANNELS 3 Zrotation Xrotation Yrotation
                    End Site
                    {
                        OFFSET -0.000000 35.408028 0.000000
                    }
                }
            }
            JOINT LeftShoulder
            {
                OFFSET 6.992933 33.973492 -0.192664
                CHANNELS 3 Zrotation Xrotation Yrotation
                JOINT LeftArm
                {
                    OFFSET 21.527611 0.000000 0.000000
                    CHANNELS 3 Zrotation Xrotation Yrotation
                    JOINT LeftForeArm
                    {
                        OFFSET 56.353916 0.000000 0.000000
                        CHANNELS 3 Zrotation Xrotation Yrotation
                        JOINT LeftHand
                        {
                            OFFSET 47.774071 0.000000 0.000000
                            CHANNELS 3 Zrotation Xrotation Yrotation
                            End Site
                            {
                                OFFSET 26.556021 0.000000 0.000000
                            }
                        }
                    }
                }
            }
            JOINT RightShoulder
            {
                OFFSET -7.065357 33.973492 -0.192664
                CHANNELS 3 Zrotation Xrotation Yrotation
                JOINT RightArm
                {
                    OFFSET -21.527611 0.000000 0.000000
                    CHANNELS 3 Zrotation Xrotation Yrotation
                    JOINT RightForeArm
                    {
                        OFFSET -56.353916 0.000000 0.000000
                        CHANNELS 3 Zrotation Xrotation Yrotation
                        JOINT RightHand
                        {
                            OFFSET -47.774071 0.000000 0.000000
                            CHANNELS 3 Zrotation Xrotation Yrotation
                            End Site
                            {
                                OFFSET -26.556021 0.000000 0.000000
                            }
                        }
                    }
                }
            }
        }
    }
    JOINT LeftUpLeg
    {
        OFFSET 17.704014 0.000000 0.000000
        CHANNELS 3 Zrotation Xrotation Yrotation
        JOINT LeftLeg
        {
            OFFSET -0.000000 -81.181816 0.000000
            CHANNELS 3 Zrotation Xrotation Yrotation
            JOINT LeftFoot
            {
                OFFSET -0.000000 -62.821102 0.000000
                CHANNELS 3 Zrotation Xrotation Yrotation
                JOINT LeftToeBase
                {
                    OFFSET -0.000000 -11.507608 26.556021
                    CHANNELS 3 Zrotation Xrotation Yrotation
                    End Site
                    {
                        OFFSET -0.000000 0.000000 7.081605
                    }
                }
            }
        }
    }
    JOINT RightUpLeg
    {
        OFFSET -17.704014 0.000000 0.000000
        CHANNELS 3 Zrotation Xrotation Yrotation
        JOINT RightLeg
        {
            OFFSET -0.000000 -81.181816 0.000000
            CHANNELS 3 Zrotation Xrotation Yrotation
            JOINT RightFoot
            {
                OFFSET -0.000000 -62.821102 0.000000
                CHANNELS 3 Zrotation Xrotation Yrotation
                JOINT RightToeBase
                {
                    OFFSET -0.000000 -11.507608 26.556021
                    CHANNELS 3 Zrotation Xrotation Yrotation
                    End Site
                    {
                        OFFSET -0.000000 0.000000 7.081605
                    }
                }
            }
        }
    }
}
MOTION
Frames:    14
Frame Time:    0.008333
-7.159845    157.385849    -33.463345    0.742272    -1.165484    -10.808111    0.868484    -0.026688    6.987409    -0.793891    1.132645    2.336865    2.885851    1.548858    -0.538224    2.989033    -5.744996    -0.376382    -1.402609    7.045432    -6.399428    -45.691536    16.547508    -32.205784    1.858847    -30.569742    -125.056160    -6.262831    -27.047325    -8.112220    -2.271582    11.921902    0.050442    37.888607    13.271804    59.190655    -15.645475    -21.742115    71.024979    12.558143    -7.674144    29.455433    7.997533    -19.132162    -9.605959    -8.823500    8.536827    -17.344259    -8.354631    5.364861    40.585541    0.000000    0.000000    0.000000    -5.797396    13.036483    -13.939164    3.919669    12.215796    -5.818804    5.997725    -21.827961    -6.570758    0.000000    0.000000    0.000000    
-7.188838    157.377380    -33.466637    0.749952    -1.158402    -10.761929    0.851810    -0.042312    6.979878    -0.769853    1.144905    2.334156    2.830276    1.545587    -0.569539    3.074856    -5.738775    -0.385227    -1.411888    7.042536    -6.418271    -45.679836    16.559494    -32.198383    1.873348    -30.592295    -125.047836    -6.277290    -27.044239    -8.134596    -2.283179    11.925649    0.037575    37.905365    13.245192    59.182476    -15.636294    -21.688902    71.014221    12.532867    -7.635664    29.433998    7.987604    -19.161039    -9.616363    -8.824394    8.562793    -17.377756    -8.351338    5.353909    40.587681    0.000000    0.000000    0.000000    -5.790302    13.046677    -13.968681    3.927172    12.205771    -5.872594    6.058795    -21.822975    -6.514467    0.000000    0.000000    0.000000    
-7.219738    157.369370    -33.468102    0.751752    -1.156810    -10.707077    0.853230    -0.051816    6.970660    -0.775939    1.158653    2.331213    2.803110    1.515100    -0.594736    3.149713    -5.692595    -0.395383    -1.403547    7.046067    -6.438599    -45.657650    16.568636    -32.202847    1.885318    -30.607580    -125.034286    -6.283280    -27.039587    -8.147553    -2.274396    11.921041    0.027658    37.908653    13.235445    59.162590    -15.632264    -21.664505    71.001015    12.494320    -7.631176    29.385105    7.982062    -19.183369    -9.620043    -8.826790    8.583481    -17.412668    -8.357948    5.353386    40.585365    0.000000    0.000000    0.000000    -5.774847    13.062675    -14.022390    3.928214    12.200859    -5.937280    6.125708    -21.811306    -6.431483    0.000000    0.000000    0.000000    
-7.250582    157.362198    -33.468754    0.755081    -1.152363    -10.652545    0.850115    -0.063839    6.963897    -0.766551    1.173673    2.328921    2.759681    1.494990    -0.625632    3.225038    -5.666437    -0.408474    -1.412463    7.037114    -6.447756    -45.637402    16.597145    -32.208374    1.899128    -30.631254    -125.017517    -6.284158    -27.041433    -8.146641    -2.282385    11.919779    0.009918    37.928516    13.225044    59.144169    -15.518585    -21.709860    71.067894    12.617040    -7.719365    29.357378    7.976739    -19.203785    -9.622875    -8.834375    8.594601    -17.407391    -8.353907    5.360264    40.548344    0.000000    0.000000    0.000000    -5.761743    13.067739    -14.063791    3.931334    12.214901    -5.938973    6.174424    -21.818483    -6.420369    0.000000    0.000000    0.000000    
-7.278510    157.352692    -33.469742    0.757473    -1.147902    -10.597824    0.861490    -0.071097    6.959221    -0.784880    1.173974    2.327549    2.728782    1.480870    -0.653765    3.306975    -5.623452    -0.419518    -1.403395    7.038609    -6.474690    -45.629440    16.605913    -32.195950    1.902576    -30.624197    -125.002937    -6.269978    -27.029806    -8.154014    -2.270175    11.910285    0.011667    37.937843    13.222409    59.102470    -15.501819    -21.695755    71.054192    12.615662    -7.721287    29.343929    7.973136    -19.224783    -9.618373    -8.833138    8.605996    -17.438465    -8.368577    5.350899    40.525185    0.000000    0.000000    0.000000    -5.746946    13.069000    -14.112723    3.927821    12.232105    -5.961180    6.218578    -21.819300    -6.384292    0.000000    0.000000    0.000000    
-7.311827    157.344940    -33.468216    0.758463    -1.144746    -10.544551    0.866946    -0.082106    6.956409    -0.795654    1.181977    2.326738    2.699941    1.459453    -0.687313    3.380116    -5.573390    -0.438449    -1.397855    7.043997    -6.487171    -45.616463    16.610025    -32.202698    1.901621    -30.612123    -124.982521    -6.275712    -27.020906    -8.132963    -2.256066    11.903984    0.002374    37.940948    13.227523    59.081142    -15.492476    -21.698673    71.027718    12.620772    -7.736960    29.329178    7.973405    -19.240993    -9.608745    -8.841068    8.619046    -17.459663    -8.368353    5.348890    40.498192    0.000000    0.000000    0.000000    -5.724367    13.076431    -14.150383    3.924183    12.241166    -5.989888    6.268530    -21.826630    -6.367069    0.000000    0.000000    0.000000    
-7.339647    157.337860    -33.466427    0.762915    -1.144725    -10.498192    0.865497    -0.091230    6.954763    -0.791930    1.191340    2.326199    2.673943    1.424491    -0.709998    3.430411    -5.506639    -0.451758    -1.398480    7.038313    -6.493334    -45.620514    16.610308    -32.195518    1.898174    -30.574726    -124.958542    -6.284652    -26.989624    -8.123428    -2.260717    11.895340    0.003589    37.949169    13.236235    59.054726    -15.478516    -21.704838    71.008926    12.647372    -7.751964    29.316233    7.969312    -19.254442    -9.589794    -8.845209    8.632924    -17.489325    -8.376718    5.342206    40.478878    0.000000    0.000000    0.000000    -5.709518    13.084599    -14.193036    3.921340    12.249438    -6.019678    6.278888    -21.820360    -6.335665    0.000000    0.000000    0.000000    
-7.368268    157.334488    -33.461071    0.765955    -1.149859    -10.451942    0.868770    -0.086451    6.950866    -0.799599    1.178724    2.324908    2.653737    1.397635    -0.727889    3.473082    -5.424674    -0.462596    -1.396909    7.054060    -6.489903    -45.628899    16.584871    -32.192188    1.868389    -30.494463    -124.942497    -6.269169    -26.959972    -8.122705    -2.250336    11.892559    0.008278    37.950859    13.252411    59.032715    -15.480787    -21.704971    70.970421    12.615623    -7.768960    29.297585    7.961209    -19.258177    -9.580536    -8.840748    8.639327    -17.520432    -8.386307    5.339702    40.466995    0.000000    0.000000    0.000000    -5.685133    13.101336    -14.251807    3.894233    12.247304    -6.063951    6.353589    -21.806170    -6.269772    0.000000    0.000000    0.000000    
-7.400003    157.330460    -33.457829    0.772749    -1.147696    -10.406562    0.872450    -0.099432    6.951449    -0.811222    1.184831    2.325243    2.636243    1.379317    -0.748755    3.512848    -5.369438    -0.476394    -1.392526    7.056760    -6.495119    -45.630898    16.606890    -32.184822    1.888947    -30.504148    -124.898529    -6.287854    -26.937103    -8.115143    -2.244603    11.889505    0.011766    37.952999    13.269450    59.012875    -15.476817    -21.714666    70.944374    12.620420    -7.788654    29.276691    7.952020    -19.273842    -9.578629    -8.835569    8.656468    -17.579077    -8.404852    5.324154    40.488300    0.000000    0.000000    0.000000    -5.659795    13.108278    -14.322452    3.865751    12.245655    -6.094610    6.384145    -21.791971    -6.204420    0.000000    0.000000    0.000000    
-7.430212    157.326920    -33.444565    0.776089    -1.159688    -10.356586    0.867472    -0.100414    6.946743    -0.798251    1.188820    2.323567    2.613487    1.351441    -0.768724    3.531021    -5.298792    -0.493430    -1.407115    7.063289    -6.487464    -45.637817    16.610710    -32.174171    1.884794    -30.474808    -124.878761    -6.284806    -26.916855    -8.087194    -2.249970    11.895169    0.006549    37.943939    13.293365    59.016003    -15.494286    -21.734930    70.894241    12.649129    -7.798511    29.291662    7.895333    -19.250200    -9.451147    -8.711582    8.659233    -17.702831    -8.443019    5.322504    40.410015    0.000000    0.000000    0.000000    -5.638430    13.140956    -14.377240    3.859663    12.231719    -6.113118    6.389342    -21.769457    -6.201611    0.000000    0.000000    0.000000    
-7.458047    157.324036    -33.438457    0.778913    -1.163407    -10.314360    0.878751    -0.100377    6.947481    -0.799973    1.185966    2.323823    2.571435    1.326418    -0.791680    3.570593    -5.233953    -0.506721    -1.421746    7.071726    -6.484271    -45.644493    16.614620    -32.160091    1.885183    -30.470060    -124.858215    -6.283274    -26.913673    -8.070941    -2.269490    11.900747    0.003849    37.956165    13.322905    59.025597    -15.514834    -21.749620    70.853172    12.634212    -7.814564    29.265982    7.888243    -19.257467    -9.469929    -8.708598    8.669933    -17.726717    -8.464158    5.304248    40.418552    0.000000    0.000000    0.000000    -5.612286    13.159138    -14.440856    3.833152    12.220950    -6.186507    6.417660    -21.747347    -6.105665    0.000000    0.000000    0.000000    
-7.487392    157.323196    -33.430950    0.784082    -1.171597    -10.270370    0.876278    -0.100613    6.945606    -0.792381    1.189517    2.323121    2.560737    1.301132    -0.802149    3.563042    -5.172725    -0.519942    -1.434791    7.076468    -6.476548    -45.657265    16.614216    -32.148277    1.879505    -30.453915    -124.851860    -6.267277    -26.909531    -8.041054    -2.278752    11.898292    0.002628    37.935730    13.373084    59.039070    -15.562894    -21.802158    70.794952    12.664430    -7.838065    29.281124    7.874182    -19.252893    -9.494853    -8.701726    8.666473    -17.729191    -8.468972    5.308508    40.400429    0.000000    0.000000    0.000000    -5.588933    13.180982    -14.498097    3.808683    12.214170    -6.199374    6.439274    -21.728895    -6.076921    0.000000    0.000000    0.000000    
-7.515873    157.320877    -33.420399    0.784169    -1.183754    -10.227699    0.879738    -0.100280    6.952182    -0.780584    1.197442    2.325274    2.537573    1.292735    -0.815577    3.563888    -5.143826    -0.531619    -1.449662    7.076179    -6.483785    -45.665493    16.641962    -32.125843    1.902553    -30.487331    -124.833237    -6.267434    -26.905506    -8.046155    -2.289924    11.906169    -0.001971    37.929432    13.389611    59.049995    -15.571434    -21.823881    70.768456    12.655300    -7.860066    29.304010    7.867315    -19.246006    -9.538004    -8.704311    8.667349    -17.731443    -8.470017    5.300455    40.404793    0.000000    0.000000    0.000000    -5.566121    13.212472    -14.539386    3.797354    12.197988    -6.238110    6.474260    -21.711897    -6.033886    0.000000    0.000000    0.000000    
-7.545472    157.317047    -33.412643    0.791121    -1.189204    -10.182251    0.880548    -0.105122    6.951824    -0.781243    1.208456    2.325236    2.535468    1.261637    -0.825007    3.545984    -5.089362    -0.546903    -1.459167    7.066693    -6.482850    -45.681923    16.655466    -32.103142    1.909736    -30.500000    -124.833984    -6.273684    -26.906164    -8.034623    -2.293294    11.924353    -0.013838    37.917828    13.405004    59.088589    -15.595168    -21.841194    70.737732    12.635672    -7.872505    29.306412    7.857060    -19.243267    -9.583979    -8.704475    8.654979    -17.737074    -8.488745    5.298507    40.408825    0.000000    0.000000    0.000000    -5.547288    13.232719    -14.596568    3.781402    12.191770    -6.268098    6.478712    -21.700005    -5.989703    0.000000    0.000000    0.000000    
